<svg id="Layer_1" data-name="Layer 1" xmlns="http://www.w3.org/2000/svg" viewBox="0 0 3755.56 2460.16">
  <defs>
    <style>
      .cls-1 {
        fill: #fff;
        stroke-width: 0px;
      }
    </style>
  </defs>
  <polygon class="cls-1" points="2976.37 1493.71 3755.56 756.82 3106.69 0 2311.34 0 1954.46 0 1954.46 329.42 1954.46 935.97 2311.34 935.97 2311.34 329.42 2464.7 329.42 2464.7 1524.2 1954.46 2006.75 1954.46 2460.16 2823.01 1638.74 2823.01 1591.03 2823.01 329.42 2955.2 329.42 3301.26 733.05 2976.37 1040.3 2976.37 1493.71"/>
  <polygon class="cls-1" points="1442.79 329.42 1442.79 577.67 587.52 577.67 800.35 329.42 1289.43 329.42 1289.43 0 648.86 0 0 756.82 1289.43 1976.26 1289.43 1522.85 668.87 935.97 1442.79 935.97 1442.79 1667.89 1442.79 2121.29 1801.1 2460.16 1801.1 2006.75 1801.1 329.42 1801.1 0 1442.79 0 1442.79 329.42"/>
</svg>